# xmcd
#
# Track frame offsets:
#	150
#	20560
#	34527
#	47490
#	61888
#	74322
#	98044
#	114303
#	128730
#	148058
# Disc length: 2206 seconds
# Revision: 1
# Processed by: cddbd v1.5.2PL0 Copyright (c) Steve Scherf et al.
#
# Submitted via: libkcddb 0.31
#
DISCID=81089c0a
DTITLE=La Ratoureuse - Par un vendredi
DYEAR=2007
DGENRE=Folklore
TTITLE0=Le cou de ma bouteille - 6/8 de la récolte - Drowsie Maggie - Rapide blanc
TTITLE1=Le repas au château
TTITLE2=Flogging reel - Mooncoin jig
TTITLE3=Par un vendredi - Les foires
TTITLE4=Dans le rang du gravier
TTITLE5=C'était un petit pauvre - Reel de la misère noire
TTITLE6=Le fromage et le rêve
TTITLE7=J'ai resté chez mon père - Le branle des chevaux
TTITLE8=La pêche - L'égoine - La gigue des lilas
TTITLE9=Gan ainm - Emily's
EXTD=(c)(p) 2007 Oniro Music www.oniro.ca
EXTT0=
EXTT1=
EXTT2=
EXTT3=
EXTT4=
EXTT5=
EXTT6=
EXTT7=
EXTT8=
EXTT9=
PLAYORDER=
